<svg width="600" height="144" viewBox="0 0 600 144" fill="none" xmlns="http://www.w3.org/2000/svg">
<path fill-rule="evenodd" clip-rule="evenodd" d="M40.9123 42.6667C39.9757 42.6667 39.2156 41.9387 39.2156 41.0417C39.2156 40.1447 39.9757 39.4167 40.9123 39.4167C41.85 39.4167 42.609 40.1447 42.609 41.0417C42.609 41.9387 41.85 42.6667 40.9123 42.6667ZM29.601 42.6667C28.6644 42.6667 27.9043 41.9387 27.9043 41.0417C27.9043 40.1447 28.6644 39.4167 29.601 39.4167C30.5387 39.4167 31.2977 40.1447 31.2977 41.0417C31.2977 41.9387 30.5387 42.6667 29.601 42.6667ZM25.0233 28.5833H44.3023C44.3679 28.5833 44.4312 28.5942 44.4923 28.6147C44.7864 28.7155 44.9414 29.0243 44.8362 29.3059L42.0457 37.2533C41.8048 37.9011 41.1657 38.3333 40.4474 38.3333H30.2797C29.5874 38.3333 28.9642 37.9314 28.7063 37.3172L25.0233 28.5833ZM43.1112 37.6162L45.9017 29.6699C46.215 28.8238 45.7547 27.8943 44.8712 27.5943C44.6891 27.5314 44.4968 27.5 44.3023 27.5H24.5664L23.6253 25.2662C23.3651 24.6519 22.7441 24.25 22.0519 24.25H20.5656C20.2522 24.25 20 24.4927 20 24.7917C20 25.0907 20.2522 25.3333 20.5656 25.3333H22.0519C22.2815 25.3333 22.4896 25.4677 22.5756 25.6713L27.6566 37.7234C27.807 38.0788 28.0344 38.3886 28.3104 38.6453C27.401 39.096 26.7732 39.9941 26.7732 41.0417C26.7732 42.5378 28.0401 43.75 29.601 43.75C31.1631 43.75 32.4288 42.5378 32.4288 41.0417C32.4288 40.4296 32.2094 39.8706 31.8508 39.4167H38.6636C38.305 39.8706 38.0845 40.4296 38.0845 41.0417C38.0845 42.5378 39.3502 43.75 40.9123 43.75C42.4744 43.75 43.7401 42.5378 43.7401 41.0417C43.7401 40.0461 43.1734 39.1859 42.3387 38.7158C42.6791 38.4211 42.9506 38.0484 43.1112 37.6162Z" fill="#333333"/>
<path d="M121.739 46.9158C122.003 46.7576 122.079 46.4301 121.91 46.1843C118.961 41.9185 114.091 39.087 108.989 39.087C103.902 39.087 99.0453 41.9035 96.0913 46.1511C95.9207 46.3964 95.9961 46.7241 96.2597 46.8829C96.5233 47.0418 96.8754 46.9716 97.046 46.7262C99.8025 42.7627 104.316 40.1455 108.989 40.1455C113.677 40.1455 118.202 42.7766 120.953 46.757C121.123 47.0029 121.475 47.0739 121.739 46.9158Z" fill="#333333"/>
<path fill-rule="evenodd" clip-rule="evenodd" d="M101.087 28.913C101.087 33.2833 104.63 36.8261 109 36.8261C113.37 36.8261 116.913 33.2833 116.913 28.913C116.913 24.5428 113.37 21 109 21C104.63 21 101.087 24.5428 101.087 28.913ZM115.783 28.913C115.783 32.659 112.746 35.6957 109 35.6957C105.254 35.6957 102.217 32.659 102.217 28.913C102.217 25.1671 105.254 22.1304 109 22.1304C112.746 22.1304 115.783 25.1671 115.783 28.913Z" fill="#333333"/>
<path fill-rule="evenodd" clip-rule="evenodd" d="M184.582 46.8028C178.364 39.2559 175.25 33.8236 175.25 30.3936C175.25 25.2485 179.719 21 185 21C190.281 21 194.75 25.2485 194.75 30.3936C194.75 33.8236 191.636 39.2559 185.418 46.8028C185.201 47.0657 184.799 47.0657 184.582 46.8028ZM193.667 30.3936C193.667 25.8594 189.695 22.0833 185 22.0833C180.305 22.0833 176.333 25.8594 176.333 30.3936C176.333 33.4101 179.219 38.515 185 45.6039C190.781 38.515 193.667 33.4101 193.667 30.3936ZM179.583 30.75C179.583 33.7415 182.008 36.1667 185 36.1667C187.992 36.1667 190.417 33.7415 190.417 30.75C190.417 27.7585 187.992 25.3333 185 25.3333C182.008 25.3333 179.583 27.7585 179.583 30.75ZM189.333 30.75C189.333 33.1432 187.393 35.0833 185 35.0833C182.607 35.0833 180.667 33.1432 180.667 30.75C180.667 28.3568 182.607 26.4167 185 26.4167C187.393 26.4167 189.333 28.3568 189.333 30.75Z" fill="#333333"/>
<path fill-rule="evenodd" clip-rule="evenodd" d="M263.259 45.6968C264.182 44.5809 264.951 42.8086 265.471 40.617C267.056 40.8033 268.656 41.0926 270.277 41.4739C268.541 43.6233 266.079 45.1551 263.259 45.6968ZM251.705 41.4468C253.328 41.0666 254.931 40.7806 256.526 40.5986C257.046 42.7988 257.817 44.5777 258.742 45.6967C255.912 45.1529 253.441 43.6103 251.705 41.4468ZM258.742 22.3032C257.814 23.4256 257.042 25.212 256.52 27.422C254.933 27.2313 253.333 26.9356 251.714 26.5423C253.448 24.3843 255.916 22.846 258.742 22.3032ZM270.284 26.538C268.664 26.9323 267.065 27.2281 265.48 27.4198C264.959 25.2109 264.186 23.4256 263.259 22.3032C266.082 22.846 268.55 24.3833 270.284 26.538ZM266.189 33.4583C266.16 31.6849 265.99 30.0068 265.704 28.4858C267.443 28.2713 269.194 27.9409 270.974 27.4903C272.106 29.2203 272.791 31.2624 272.89 33.4583H266.189ZM264.619 28.5942C264.901 30.0621 265.076 31.7077 265.106 33.4583H256.894C256.925 31.7088 257.099 30.0643 257.381 28.5963C259.797 28.8249 262.199 28.8249 264.619 28.5942ZM261 22.0833C262.279 22.0833 263.6 24.2446 264.391 27.5293C262.125 27.7373 259.873 27.7383 257.609 27.5314C258.399 24.2457 259.721 22.0833 261 22.0833ZM251.024 27.4946C252.802 27.9442 254.556 28.2735 256.296 28.4869C256.01 30.0079 255.84 31.686 255.811 33.4583H249.11C249.21 31.2635 249.894 29.2236 251.024 27.4946ZM249.11 34.5417H255.811C255.84 36.3227 256.012 38.0062 256.299 39.5326C254.553 39.7363 252.795 40.0548 251.015 40.4913C249.89 38.7656 249.209 36.7311 249.11 34.5417ZM257.385 39.4286C257.101 37.9553 256.925 36.301 256.894 34.5417H265.106C265.076 36.3075 264.898 37.965 264.612 39.4438C262.196 39.2173 259.796 39.2119 257.385 39.4286ZM261 45.9167C259.724 45.9167 258.405 43.7663 257.615 40.4935C259.872 40.2996 262.119 40.3039 264.382 40.5087C263.591 43.7728 262.274 45.9167 261 45.9167ZM270.969 40.5195C269.191 40.0818 267.436 39.7612 265.697 39.5499C265.988 38.0203 266.16 36.3303 266.189 34.5417H272.89C272.79 36.7419 272.104 38.7873 270.969 40.5195ZM261 21C253.821 21 248 26.8208 248 34C248 41.1792 253.821 47 261 47C268.179 47 274 41.1792 274 34C274 26.8208 268.179 21 261 21Z" fill="#333333"/>
<path fill-rule="evenodd" clip-rule="evenodd" d="M330.45 31.5147C330.45 26.3064 334.583 22.0833 339.683 22.0833C344.782 22.0833 348.917 26.3064 348.917 31.5147C348.917 36.723 344.782 40.9461 339.683 40.9461C337.204 40.9461 334.958 39.943 333.3 38.3197L326.01 45.7549C325.797 45.9713 325.454 45.9702 325.242 45.7538C325.03 45.5375 325.03 45.1857 325.242 44.9694L332.555 37.5097C331.24 35.8809 330.45 33.7915 330.45 31.5147ZM331.536 31.5147C331.536 36.1116 335.183 39.8365 339.683 39.8365C344.183 39.8365 347.83 36.1116 347.83 31.5147C347.83 26.9188 344.183 23.1929 339.683 23.1929C335.183 23.1929 331.536 26.9188 331.536 31.5147Z" fill="#333333"/>
<path fill-rule="evenodd" clip-rule="evenodd" d="M406.671 23.007L418.157 33.6746C418.384 33.8858 418.383 34.2293 418.154 34.4405L406.673 44.9911C406.443 45.2013 406.442 45.5458 406.671 45.757C406.899 45.9693 407.27 45.9693 407.5 45.7592L418.981 35.2086C419.671 34.5748 419.673 33.5468 418.988 32.9098L407.502 22.2433C407.274 22.0309 406.903 22.0298 406.673 22.2411C406.443 22.4523 406.442 22.7947 406.671 23.007" fill="#333333"/>
<path fill-rule="evenodd" clip-rule="evenodd" d="M40.9123 118.667C39.9757 118.667 39.2156 117.939 39.2156 117.042C39.2156 116.145 39.9757 115.417 40.9123 115.417C41.85 115.417 42.609 116.145 42.609 117.042C42.609 117.939 41.85 118.667 40.9123 118.667ZM29.601 118.667C28.6644 118.667 27.9043 117.939 27.9043 117.042C27.9043 116.145 28.6644 115.417 29.601 115.417C30.5387 115.417 31.2977 116.145 31.2977 117.042C31.2977 117.939 30.5387 118.667 29.601 118.667ZM25.0233 104.583H44.3023C44.3679 104.583 44.4312 104.594 44.4923 104.615C44.7864 104.716 44.9414 105.024 44.8362 105.306L42.0457 113.253C41.8048 113.901 41.1657 114.333 40.4474 114.333H30.2797C29.5874 114.333 28.9642 113.931 28.7063 113.317L25.0233 104.583ZM43.1112 113.616L45.9017 105.67C46.215 104.824 45.7547 103.894 44.8712 103.594C44.6891 103.531 44.4968 103.5 44.3023 103.5H24.5664L23.6253 101.266C23.3651 100.652 22.7441 100.25 22.0519 100.25H20.5656C20.2522 100.25 20 100.493 20 100.792C20 101.091 20.2522 101.333 20.5656 101.333H22.0519C22.2815 101.333 22.4896 101.468 22.5756 101.671L27.6566 113.723C27.807 114.079 28.0344 114.389 28.3104 114.645C27.401 115.096 26.7732 115.994 26.7732 117.042C26.7732 118.538 28.0401 119.75 29.601 119.75C31.1631 119.75 32.4288 118.538 32.4288 117.042C32.4288 116.43 32.2094 115.871 31.8508 115.417H38.6636C38.305 115.871 38.0845 116.43 38.0845 117.042C38.0845 118.538 39.3502 119.75 40.9123 119.75C42.4744 119.75 43.7401 118.538 43.7401 117.042C43.7401 116.046 43.1734 115.186 42.3387 114.716C42.6791 114.421 42.9506 114.048 43.1112 113.616Z" fill="#034C81"/>
<path d="M121.739 122.916C122.003 122.758 122.079 122.43 121.91 122.184C118.961 117.918 114.091 115.087 108.989 115.087C103.902 115.087 99.0453 117.903 96.0913 122.151C95.9207 122.396 95.9961 122.724 96.2597 122.883C96.5233 123.042 96.8754 122.972 97.046 122.726C99.8025 118.763 104.316 116.145 108.989 116.145C113.677 116.145 118.202 118.777 120.953 122.757C121.123 123.003 121.475 123.074 121.739 122.916Z" fill="#034C81"/>
<path fill-rule="evenodd" clip-rule="evenodd" d="M101.087 104.913C101.087 109.283 104.63 112.826 109 112.826C113.37 112.826 116.913 109.283 116.913 104.913C116.913 100.543 113.37 97 109 97C104.63 97 101.087 100.543 101.087 104.913ZM115.783 104.913C115.783 108.659 112.746 111.696 109 111.696C105.254 111.696 102.217 108.659 102.217 104.913C102.217 101.167 105.254 98.1304 109 98.1304C112.746 98.1304 115.783 101.167 115.783 104.913Z" fill="#034C81"/>
<path fill-rule="evenodd" clip-rule="evenodd" d="M184.582 122.803C178.364 115.256 175.25 109.824 175.25 106.394C175.25 101.248 179.719 97 185 97C190.281 97 194.75 101.248 194.75 106.394C194.75 109.824 191.636 115.256 185.418 122.803C185.201 123.066 184.799 123.066 184.582 122.803ZM193.667 106.394C193.667 101.859 189.695 98.0833 185 98.0833C180.305 98.0833 176.333 101.859 176.333 106.394C176.333 109.41 179.219 114.515 185 121.604C190.781 114.515 193.667 109.41 193.667 106.394ZM179.583 106.75C179.583 109.742 182.008 112.167 185 112.167C187.992 112.167 190.417 109.742 190.417 106.75C190.417 103.758 187.992 101.333 185 101.333C182.008 101.333 179.583 103.758 179.583 106.75ZM189.333 106.75C189.333 109.143 187.393 111.083 185 111.083C182.607 111.083 180.667 109.143 180.667 106.75C180.667 104.357 182.607 102.417 185 102.417C187.393 102.417 189.333 104.357 189.333 106.75Z" fill="#034C81"/>
<path fill-rule="evenodd" clip-rule="evenodd" d="M263.259 121.697C264.182 120.581 264.951 118.809 265.471 116.617C267.056 116.803 268.656 117.093 270.277 117.474C268.541 119.623 266.079 121.155 263.259 121.697ZM251.705 117.447C253.328 117.067 254.931 116.781 256.526 116.599C257.046 118.799 257.817 120.578 258.742 121.697C255.912 121.153 253.441 119.61 251.705 117.447ZM258.742 98.3032C257.814 99.4256 257.042 101.212 256.52 103.422C254.933 103.231 253.333 102.936 251.714 102.542C253.448 100.384 255.916 98.846 258.742 98.3032ZM270.284 102.538C268.664 102.932 267.065 103.228 265.48 103.42C264.959 101.211 264.186 99.4256 263.259 98.3032C266.082 98.846 268.55 100.383 270.284 102.538ZM266.189 109.458C266.16 107.685 265.99 106.007 265.704 104.486C267.443 104.271 269.194 103.941 270.974 103.49C272.106 105.22 272.791 107.262 272.89 109.458H266.189ZM264.619 104.594C264.901 106.062 265.076 107.708 265.106 109.458H256.894C256.925 107.709 257.099 106.064 257.381 104.596C259.797 104.825 262.199 104.825 264.619 104.594ZM261 98.0833C262.279 98.0833 263.6 100.245 264.391 103.529C262.125 103.737 259.873 103.738 257.609 103.531C258.399 100.246 259.721 98.0833 261 98.0833ZM251.024 103.495C252.802 103.944 254.556 104.273 256.296 104.487C256.01 106.008 255.84 107.686 255.811 109.458H249.11C249.21 107.264 249.894 105.224 251.024 103.495ZM249.11 110.542H255.811C255.84 112.323 256.012 114.006 256.299 115.533C254.553 115.736 252.795 116.055 251.015 116.491C249.89 114.766 249.209 112.731 249.11 110.542ZM257.385 115.429C257.101 113.955 256.925 112.301 256.894 110.542H265.106C265.076 112.308 264.898 113.965 264.612 115.444C262.196 115.217 259.796 115.212 257.385 115.429ZM261 121.917C259.724 121.917 258.405 119.766 257.615 116.494C259.872 116.3 262.119 116.304 264.382 116.509C263.591 119.773 262.274 121.917 261 121.917ZM270.969 116.52C269.191 116.082 267.436 115.761 265.697 115.55C265.988 114.02 266.16 112.33 266.189 110.542H272.89C272.79 112.742 272.104 114.787 270.969 116.52ZM261 97C253.821 97 248 102.821 248 110C248 117.179 253.821 123 261 123C268.179 123 274 117.179 274 110C274 102.821 268.179 97 261 97Z" fill="#034C81"/>
<path fill-rule="evenodd" clip-rule="evenodd" d="M330.45 107.515C330.45 102.306 334.583 98.0833 339.683 98.0833C344.782 98.0833 348.917 102.306 348.917 107.515C348.917 112.723 344.782 116.946 339.683 116.946C337.204 116.946 334.958 115.943 333.3 114.32L326.01 121.755C325.797 121.971 325.454 121.97 325.242 121.754C325.03 121.537 325.03 121.186 325.242 120.969L332.555 113.51C331.24 111.881 330.45 109.792 330.45 107.515ZM331.536 107.515C331.536 112.112 335.183 115.836 339.683 115.836C344.183 115.836 347.83 112.112 347.83 107.515C347.83 102.919 344.183 99.1929 339.683 99.1929C335.183 99.1929 331.536 102.919 331.536 107.515Z" fill="#034C81"/>
<path fill-rule="evenodd" clip-rule="evenodd" d="M406.671 99.007L418.157 109.675C418.384 109.886 418.383 110.229 418.154 110.441L406.673 120.991C406.443 121.201 406.442 121.546 406.671 121.757C406.899 121.969 407.27 121.969 407.5 121.759L418.981 111.209C419.671 110.575 419.673 109.547 418.988 108.91L407.502 98.2433C407.274 98.0309 406.903 98.0299 406.673 98.2411C406.443 98.4524 406.442 98.7947 406.671 99.007" fill="#034C81"/>
<circle cx="528" cy="72" r="52" fill="#47B7E6"/>
<circle cx="528" cy="72" r="43" fill="#066DAE"/>
<path fill-rule="evenodd" clip-rule="evenodd" d="M543.216 88.6667C541.415 88.6667 539.953 87.2667 539.953 85.5417C539.953 83.8167 541.415 82.4167 543.216 82.4167C545.019 82.4167 546.479 83.8167 546.479 85.5417C546.479 87.2667 545.019 88.6667 543.216 88.6667ZM521.463 88.6667C519.662 88.6667 518.201 87.2667 518.201 85.5417C518.201 83.8167 519.662 82.4167 521.463 82.4167C523.267 82.4167 524.726 83.8167 524.726 85.5417C524.726 87.2667 523.267 88.6667 521.463 88.6667ZM512.66 61.5833H549.735C549.861 61.5833 549.983 61.6042 550.101 61.6437C550.666 61.8375 550.964 62.4312 550.762 62.9729L545.396 78.2563C544.932 79.5021 543.703 80.3333 542.322 80.3333H522.769C521.437 80.3333 520.239 79.5604 519.743 78.3792L512.66 61.5833ZM547.445 78.9542L552.811 63.6729C553.414 62.0458 552.528 60.2583 550.829 59.6812C550.479 59.5604 550.109 59.5 549.735 59.5H511.781L509.972 55.2042C509.471 54.0229 508.277 53.25 506.946 53.25H504.088C503.485 53.25 503 53.7167 503 54.2917C503 54.8667 503.485 55.3333 504.088 55.3333H506.946C507.387 55.3333 507.788 55.5917 507.953 55.9833L517.724 79.1604C518.014 79.8438 518.451 80.4396 518.982 80.9333C517.233 81.8 516.025 83.5271 516.025 85.5417C516.025 88.4188 518.462 90.75 521.463 90.75C524.468 90.75 526.902 88.4188 526.902 85.5417C526.902 84.3646 526.48 83.2896 525.79 82.4167H538.892C538.202 83.2896 537.778 84.3646 537.778 85.5417C537.778 88.4188 540.212 90.75 543.216 90.75C546.22 90.75 548.654 88.4188 548.654 85.5417C548.654 83.6271 547.564 81.9729 545.959 81.0687C546.614 80.5021 547.136 79.7854 547.445 78.9542Z" fill="white"/>
</svg>
