<svg width="24" height="25" viewBox="0 0 24 25" fill="none" xmlns="http://www.w3.org/2000/svg">
<path d="M0 7.30444C0 7.58059 0.223858 7.80444 0.5 7.80444H23.5C23.7761 7.80444 24 7.58059 24 7.30444C24 7.0283 23.7761 6.80444 23.5 6.80444H0.5C0.223858 6.80444 0 7.0283 0 7.30444Z" fill="#04208F"/>
<path d="M0.5 13.8044C0.223858 13.8044 0 13.5806 0 13.3044C0 13.0283 0.223858 12.8044 0.5 12.8044H23.5C23.7761 12.8044 24 13.0283 24 13.3044C24 13.5806 23.7761 13.8044 23.5 13.8044H0.5Z" fill="#04208F"/>
<path d="M0.5 19.8044C0.223858 19.8044 0 19.5806 0 19.3044C0 19.0283 0.223858 18.8044 0.5 18.8044H23.5C23.7761 18.8044 24 19.0283 24 19.3044C24 19.5806 23.7761 19.8044 23.5 19.8044H0.5Z" fill="#04208F"/>
</svg>
