<svg width="22" height="22" viewBox="0 0 22 22" fill="none" xmlns="http://www.w3.org/2000/svg">
<path fill-rule="evenodd" clip-rule="evenodd" d="M4.9537 8.70587C4.9537 3.89818 8.76907 0 13.4769 0C18.1836 0 22 3.89818 22 8.70587C22 13.5136 18.1836 17.4117 13.4769 17.4117C11.1886 17.4117 9.11501 16.4859 7.58485 14.9874L0.855574 21.8507C0.65904 22.0504 0.342179 22.0494 0.146648 21.8497C-0.0488828 21.65 -0.0488828 21.3253 0.146648 21.1256L6.89698 14.2397C5.68268 12.7362 4.9537 10.8076 4.9537 8.70587ZM5.95643 8.70587C5.95643 12.9492 9.32257 16.3875 13.4769 16.3875C17.6301 16.3875 20.9973 12.9492 20.9973 8.70587C20.9973 4.46355 17.6301 1.02422 13.4769 1.02422C9.32257 1.02422 5.95643 4.46355 5.95643 8.70587Z" fill="#04208F"/>
</svg>
